<svg width="417" height="406" viewBox="0 0 417 406" fill="none" xmlns="http://www.w3.org/2000/svg">
<path opacity="0.5" d="M13.3156 315.716C20.6307 192.716 117.905 194.286 144.817 196.162C171.73 198.037 199.822 227.109 191.009 240.17C182.195 253.231 161.628 248.729 150.254 230.01C136.093 206.707 139.75 197.529 148.914 177.279C158.077 157.029 208.769 135.482 241.992 144.919C275.215 154.357 301.734 171.216 319.499 201.216" stroke="#767676" stroke-linejoin="round" stroke-dasharray="6 4"/>
<circle cx="385.893" cy="159.363" r="7" transform="rotate(26.051 385.893 159.363)" fill="#454545"/>
<circle cx="385.893" cy="159.363" r="3" transform="rotate(26.051 385.893 159.363)" fill="white"/>
<path d="M62.6563 201.252L59.5475 214.58L55.77 216.876C55.1737 217.238 54.6568 217.73 54.2619 218.32L54.0175 218.729C53.6693 219.248 53.6673 219.892 54.0122 220.411C54.357 220.931 54.967 221.203 55.5781 221.126L56.123 221.082C56.8225 220.994 57.5066 220.756 58.1039 220.393L61.8814 218.098L75.8051 221.074C76.5142 221.226 77.242 221.104 77.8559 220.731L78.9328 220.077C79.101 219.975 79.197 219.793 79.1836 219.604C79.1711 219.414 79.0512 219.245 78.8695 219.165L67.8218 214.249C69.1578 213.323 70.2449 212.507 71.5674 211.513L72.9218 210.494L77.0899 212.282C77.2585 212.353 77.4509 212.34 77.6053 212.246L78.5241 211.688C78.6629 211.604 78.7549 211.463 78.7734 211.306C78.7922 211.148 78.7348 210.991 78.6187 210.88L75.1584 207.564L73.4936 203.156C73.48 203.12 73.4626 203.086 73.4416 203.054C73.3757 202.955 73.2766 202.879 73.1579 202.84C73.0009 202.79 72.8283 202.81 72.6896 202.894L71.7707 203.452C71.6163 203.546 71.5211 203.708 71.5188 203.883L71.4389 208.251L69.8943 208.994C68.3939 209.715 67.1608 210.309 65.7162 211.072L65.765 199.414C65.7664 199.222 65.6573 199.048 65.4846 198.957C65.3107 198.863 65.098 198.869 64.9298 198.972L63.8529 199.626C63.239 199.999 62.814 200.576 62.6563 201.252Z" fill="#454545"/>
<circle cx="12.499" cy="315.5" r="8.5" fill="white"/>
<path d="M25.3646 311.325C24.1644 307.688 21.0036 304.725 17.1228 303.6C15.7625 303.206 14.3622 303 13.0019 303C10.2213 303 7.54075 303.806 5.30025 305.382C1.97939 307.669 -0.000976562 311.325 -0.000976562 315.188C-0.000976562 317.85 0.899221 320.382 2.59959 322.5L13.0019 335L23.4042 322.5C25.9447 319.313 26.6649 315.244 25.3646 311.325ZM13.0019 321.75C9.14103 321.75 6.00034 318.806 6.00034 315.188C6.00034 311.569 9.14103 308.625 13.0019 308.625C16.8627 308.625 20.0034 311.569 20.0034 315.188C20.0034 318.806 16.8627 321.75 13.0019 321.75Z" fill="#454545"/>
</svg>
