<svg width="17" height="16" viewBox="0 0 17 16" fill="none" xmlns="http://www.w3.org/2000/svg">
<path d="M15.1786 1.71428H13.3571V0.571439C13.3571 0.255837 13.0853 0 12.75 0C12.4147 0 12.1428 0.255837 12.1428 0.571439V1.71428H4.85713V0.571439C4.85713 0.255837 4.5853 0 4.25001 0C3.91472 0 3.64285 0.255837 3.64285 0.571439V1.71428H1.82143C0.81548 1.71428 0 2.4818 0 3.42857V14.2857C0 15.2325 0.81548 16 1.82143 16H15.1786C16.1845 16 17 15.2325 17 14.2857V3.42857C17 2.4818 16.1845 1.71428 15.1786 1.71428ZM15.7857 14.2857C15.7857 14.6013 15.5139 14.8572 15.1785 14.8572H1.82143C1.4861 14.8572 1.21427 14.6013 1.21427 14.2857V6.85714H15.7857V14.2857ZM15.7857 5.71429H1.21427V3.42857C1.21427 3.11297 1.4861 2.85713 1.82143 2.85713H3.64285V3.99997C3.64285 4.31558 3.91468 4.57141 4.25001 4.57141C4.58534 4.57141 4.85716 4.31558 4.85716 3.99997V2.85713H12.1429V3.99997C12.1429 4.31558 12.4147 4.57141 12.75 4.57141C13.0854 4.57141 13.3572 4.31558 13.3572 3.99997V2.85713H15.1786C15.5139 2.85713 15.7858 3.11297 15.7858 3.42857V5.71429H15.7857Z" fill="#BBBBBB"/>
<path d="M12.5575 8.16749C12.3222 7.95361 11.9492 7.95361 11.714 8.16749L7.28607 12.3349L5.28674 10.4532C5.04554 10.2339 4.66119 10.2402 4.42825 10.4672C4.201 10.6887 4.201 11.0397 4.42825 11.2612L6.85683 13.5469C7.09393 13.77 7.47825 13.77 7.71532 13.5469L12.5724 8.97548C12.8054 8.74847 12.7987 8.38673 12.5575 8.16749Z" fill="#BBBBBB"/>
</svg>
