<svg width="17" height="16" viewBox="0 0 17 16" fill="none" xmlns="http://www.w3.org/2000/svg">
<g opacity="0.2">
<path d="M16.892 7.68882C16.7401 7.49329 13.1215 2.90112 8.49992 2.90112C3.87833 2.90112 0.259583 7.49329 0.107877 7.68863C-0.0359591 7.87413 -0.0359591 8.12573 0.107877 8.31123C0.259583 8.50676 3.87833 13.0989 8.49992 13.0989C13.1215 13.0989 16.7401 8.50673 16.892 8.31138C17.036 8.12591 17.036 7.87413 16.892 7.68882ZM8.49992 12.044C5.09563 12.044 2.14715 8.99607 1.27434 7.99966C2.14602 7.00238 5.08832 3.95606 8.49992 3.95606C11.904 3.95606 14.8523 7.00344 15.7255 8.00038C14.8538 8.99763 11.9115 12.044 8.49992 12.044Z" fill="black"/>
<path d="M8.49936 4.83496C6.64524 4.83496 5.13672 6.25474 5.13672 7.99981C5.13672 9.74488 6.64524 11.1647 8.49936 11.1647C10.3535 11.1647 11.862 9.74488 11.862 7.99981C11.862 6.25474 10.3535 4.83496 8.49936 4.83496ZM8.49936 10.1097C7.26321 10.1097 6.25762 9.16322 6.25762 7.99981C6.25762 6.8364 7.26325 5.88993 8.49936 5.88993C9.73548 5.88993 10.7411 6.8364 10.7411 7.99981C10.7411 9.16322 9.73552 10.1097 8.49936 10.1097Z" fill="black"/>
</g>
</svg>
